<?xml version="1.0" encoding="UTF-8" standalone="no"?>
<svg
   viewBox="52 42 88 66.017021"
   version="1.1"
   id="svg12"
   sodipodi:docname="6946ebd9919ff83b857128909c05d84b.svg"
   width="88"
   height="66.017021"
   xmlns:inkscape="http://www.inkscape.org/namespaces/inkscape"
   xmlns:sodipodi="http://sodipodi.sourceforge.net/DTD/sodipodi-0.dtd"
   xmlns="http://www.w3.org/2000/svg"
   xmlns:svg="http://www.w3.org/2000/svg">
  <defs
     id="defs16" />
  <sodipodi:namedview
     id="namedview14"
     pagecolor="#ffffff"
     bordercolor="#666666"
     borderopacity="1.0"
     inkscape:pageshadow="2"
     inkscape:pageopacity="0.0"
     inkscape:pagecheckerboard="0" />
  <path
     fill="#4285f4"
     d="M 58,108.01702 H 72 V 74.017021 l -20,-15 v 42.999999 c 0,3.32 2.69,6 6,6"
     id="path2" />
  <path
     fill="#34a853"
     d="m 120,108.01702 h 14 c 3.32,0 6,-2.69 6,-6 V 59.017021 l -20,15"
     id="path4" />
  <path
     fill="#fbbc04"
     d="m 120,48.017021 v 26 l 20,-15 v -8 c 0,-7.42 -8.47,-11.65 -14.4,-7.2"
     id="path6" />
  <path
     fill="#ea4335"
     d="m 72,74.017021 v -26 l 24,18 24,-18 v 26 l -24,18"
     id="path8" />
  <path
     fill="#c5221f"
     d="m 52,51.017021 v 8 l 20,15 v -26 l -5.6,-4.2 c -5.94,-4.45 -14.4,-0.22 -14.4,7.2"
     id="path10" />
</svg>
