<?xml version="1.0" standalone="no"?>
<!DOCTYPE svg PUBLIC "-//W3C//DTD SVG 20010904//EN"
 "http://www.w3.org/TR/2001/REC-SVG-20010904/DTD/svg10.dtd">
<svg version="1.0" xmlns="http://www.w3.org/2000/svg"
 width="22.000000pt" height="22.000000pt" viewBox="0 0 225.000000 225.000000"
 preserveAspectRatio="xMidYMid meet">

<g transform="translate(0.000000,225.000000) scale(0.100000,-0.100000)"
fill="#ffffff" stroke="none">
<path d="M165 1946 c-63 -29 -112 -77 -139 -136 -21 -44 -21 -57 -21 -690 l0
-645 27 -50 c33 -63 70 -98 133 -127 l50 -23 915 0 c1021 0 945 -5 1030 71 23
21 51 56 63 78 22 41 22 42 22 702 l0 661 -30 48 c-35 57 -100 110 -153 125
-24 6 -349 10 -942 10 l-905 0 -50 -24z m515 -407 c232 -187 428 -343 436
-346 20 -7 9 -16 469 356 215 173 396 319 403 324 19 14 97 -19 126 -54 14
-17 30 -47 36 -67 8 -25 10 -232 8 -653 l-3 -616 -29 -37 c-35 -46 -82 -76
-118 -76 l-28 0 0 583 c0 521 -2 585 -16 606 -11 15 -24 21 -38 19 -11 -2
-195 -145 -409 -317 -268 -216 -391 -310 -401 -304 -7 4 -180 143 -385 308
-204 165 -382 304 -395 309 -17 7 -29 6 -40 -4 -14 -11 -16 -81 -16 -608 l0
-595 -40 6 c-51 7 -101 44 -126 94 -18 36 -19 70 -19 648 0 336 3 622 8 637
15 54 97 126 144 128 7 0 202 -153 433 -341z m1155 332 c-6 -5 -167 -135 -359
-290 -230 -186 -352 -279 -360 -273 -25 19 -595 479 -649 524 l-58 48 717 0
c418 0 714 -4 709 -9z m-1092 -735 c191 -155 358 -285 372 -290 18 -7 29 -6
42 6 16 13 679 546 711 571 9 7 12 -98 12 -522 l0 -531 -755 0 -755 0 0 531
c0 421 3 529 13 523 6 -4 168 -134 360 -288z"/>
<path d="M1736 1179 c-31 -24 -34 -64 -7 -79 29 -15 39 -13 66 15 30 29 31 39
5 65 -25 25 -31 25 -64 -1z"/>
<path d="M1447 951 c-96 -76 -177 -146 -180 -156 -11 -27 10 -55 41 -55 37 1
366 265 370 298 4 28 -14 52 -39 52 -10 0 -97 -62 -192 -139z"/>
</g>
</svg>
