<svg id="Layer_1" data-name="Layer 1" xmlns="http://www.w3.org/2000/svg" xmlns:xlink="http://www.w3.org/1999/xlink" viewBox="0 0 126.81 190.47"><defs><style>.cls-1{stroke:#527cbc;stroke-miterlimit:10;stroke-width:6px;}.cls-2{fill:url(#linear-gradient);}.cls-3{fill:#1e2f97;}.cls-4{fill:url(#linear-gradient-2);}</style><linearGradient id="linear-gradient" x1="368.48" y1="261.55" x2="448.12" y2="261.55" gradientUnits="userSpaceOnUse"><stop offset="0" stop-color="#47abd0"/><stop offset="0.43" stop-color="#5077b5"/><stop offset="0.67" stop-color="#5053b8"/><stop offset="1" stop-color="#383c93"/></linearGradient><linearGradient id="linear-gradient-2" x1="-254.54" y1="50.28" x2="-174.9" y2="50.28" gradientTransform="translate(200.59 347.75) rotate(180)" xlink:href="#linear-gradient"/></defs><title>SHOPLE LOGO single 2</title><rect class="cls-1" x="3" y="3" width="120.81" height="184.47"/><path class="cls-2" d="M448.12,267.43h0l-.26.14a9.2,9.2,0,0,1-11.44-3.26l0-.05-.63-1.11-26.37-46.34-29.1,16.56,47.61,83.68,0,.07h0a9.32,9.32,0,0,1-11.63-3l-.87-1.55-42.62-74.91h0l-4.27-7.52L412.6,205l4.16,7.31h0l22.3,39.19.64,1.12Z" transform="translate(-346.85 -186.36)"/><circle class="cls-3" cx="45.42" cy="34.26" r="14.88"/><path class="cls-4" d="M375.48,291.58h0l.26-.14a9.2,9.2,0,0,1,11.44,3.26l0,.05.63,1.11,26.37,46.34,29.1-16.56L395.72,242l0-.07h0a9.32,9.32,0,0,1,11.63,3l.87,1.55,42.62,74.91h0l4.27,7.52L411,354l-4.16-7.31h0l-22.3-39.19-.64-1.12Z" transform="translate(-346.85 -186.36)"/><circle class="cls-3" cx="84.49" cy="152.03" r="14.88"/></svg>